<?xml version="1.0" encoding="UTF-8"?><svg xmlns="http://www.w3.org/2000/svg" xmlns:xlink="http://www.w3.org/1999/xlink" contentScriptType="text/ecmascript" width="45.75" zoomAndPan="magnify" contentStyleType="text/css" viewBox="0 0 45.75 44.249999" height="44.249999" preserveAspectRatio="xMidYMid meet" version="1.0"><defs><clipPath id="clip-0"><path d="M 0.257812 0 L 45.246094 0 L 45.246094 43.511719 L 0.257812 43.511719 Z M 0.257812 0 " clip-rule="nonzero"/></clipPath><clipPath id="clip-1"><path d="M 23 8.023438 L 45.246094 8.023438 L 45.246094 31 L 23 31 Z M 23 8.023438 " clip-rule="nonzero"/></clipPath><clipPath id="clip-2"><path d="M 0.257812 8.023438 L 23 8.023438 L 23 31 L 0.257812 31 Z M 0.257812 8.023438 " clip-rule="nonzero"/></clipPath><clipPath id="clip-3"><path d="M 11 11 L 35 11 L 35 35.460938 L 11 35.460938 Z M 11 11 " clip-rule="nonzero"/></clipPath></defs><g clip-path="url(#clip-0)"><path fill="rgb(100%, 100%, 100%)" d="M 0.257812 0 L 45.492188 0 L 45.492188 43.75 L 0.257812 43.75 Z M 0.257812 0 " fill-opacity="1" fill-rule="nonzero"/><path fill="rgb(76.469421%, 90.19928%, 89.7995%)" d="M 0.257812 0 L 45.492188 0 L 45.492188 43.75 L 0.257812 43.75 Z M 0.257812 0 " fill-opacity="1" fill-rule="nonzero"/></g><g clip-path="url(#clip-1)"><path fill="rgb(15.689087%, 46.669006%, 46.669006%)" d="M 45.472656 27.898438 C 45.398438 25.898438 44.277344 24.082031 42.433594 22.742188 C 41.582031 22.121094 40.578125 21.605469 39.449219 21.21875 C 41.097656 19.851562 42.148438 17.796875 42.148438 15.5 C 42.148438 11.382812 38.777344 8.042969 34.617188 8.042969 C 30.457031 8.042969 27.085938 11.382812 27.085938 15.5 C 27.085938 17.796875 28.136719 19.851562 29.785156 21.21875 C 28.660156 21.605469 27.65625 22.121094 26.804688 22.742188 C 24.960938 24.082031 23.839844 25.898438 23.761719 27.898438 C 23.734375 28.601562 23.8125 29.191406 23.976562 29.695312 C 26.792969 30.382812 30.523438 30.804688 34.617188 30.804688 C 38.71875 30.804688 42.457031 30.382812 45.277344 29.691406 C 45.429688 29.1875 45.5 28.597656 45.472656 27.898438 " fill-opacity="1" fill-rule="nonzero"/></g><g clip-path="url(#clip-2)"><path fill="rgb(15.689087%, 46.669006%, 46.669006%)" d="M 22 27.898438 C 21.925781 25.898438 20.804688 24.082031 18.960938 22.742188 C 18.109375 22.121094 17.105469 21.605469 15.976562 21.21875 C 17.625 19.851562 18.675781 17.796875 18.675781 15.5 C 18.675781 11.382812 15.304688 8.042969 11.144531 8.042969 C 6.988281 8.042969 3.613281 11.382812 3.613281 15.5 C 3.613281 17.796875 4.664062 19.851562 6.3125 21.21875 C 5.1875 21.605469 4.183594 22.121094 3.332031 22.742188 C 1.488281 24.082031 0.367188 25.898438 0.289062 27.898438 C 0.261719 28.601562 0.339844 29.191406 0.507812 29.695312 C 3.324219 30.382812 7.054688 30.804688 11.144531 30.804688 C 15.25 30.804688 18.988281 30.382812 21.804688 29.691406 C 21.957031 29.1875 22.027344 28.597656 22 27.898438 " fill-opacity="1" fill-rule="nonzero"/></g><g clip-path="url(#clip-3)"><path fill="rgb(25.099182%, 74.899292%, 73.728943%)" d="M 34.421875 32.363281 C 34.34375 30.238281 33.148438 28.304688 31.1875 26.882812 C 30.285156 26.222656 29.214844 25.675781 28.019531 25.265625 C 29.769531 23.808594 30.886719 21.628906 30.886719 19.183594 C 30.886719 14.804688 27.304688 11.257812 22.882812 11.257812 C 18.460938 11.257812 14.875 14.804688 14.875 19.183594 C 14.875 21.628906 15.992188 23.808594 17.746094 25.265625 C 16.546875 25.675781 15.480469 26.222656 14.574219 26.882812 C 12.617188 28.304688 11.425781 30.238281 11.339844 32.363281 C 11.3125 33.109375 11.394531 33.738281 11.570312 34.273438 C 14.566406 35.007812 18.53125 35.453125 22.882812 35.453125 C 27.242188 35.453125 31.21875 35.003906 34.214844 34.269531 C 34.375 33.734375 34.449219 33.105469 34.421875 32.363281 " fill-opacity="1" fill-rule="nonzero"/></g></svg>