<?xml version="1.0" encoding="UTF-8"?><svg xmlns="http://www.w3.org/2000/svg" xmlns:xlink="http://www.w3.org/1999/xlink" contentScriptType="text/ecmascript" width="45.75" zoomAndPan="magnify" contentStyleType="text/css" viewBox="0 0 45.75 44.249999" height="44.249999" preserveAspectRatio="xMidYMid meet" version="1.0"><defs><clipPath id="clip-0"><path d="M 0.257812 0 L 45.246094 0 L 45.246094 43.511719 L 0.257812 43.511719 Z M 0.257812 0 " clip-rule="nonzero"/></clipPath><clipPath id="clip-1"><path d="M 9 14 L 39 14 L 39 42.664062 L 9 42.664062 Z M 9 14 " clip-rule="nonzero"/></clipPath><clipPath id="clip-2"><path d="M 6.710938 3 L 23 3 L 23 13 L 6.710938 13 Z M 6.710938 3 " clip-rule="nonzero"/></clipPath><clipPath id="clip-3"><path d="M 12 21 L 39 21 L 39 42.664062 L 12 42.664062 Z M 12 21 " clip-rule="nonzero"/></clipPath></defs><g clip-path="url(#clip-0)"><path fill="rgb(100%, 100%, 100%)" d="M 0.257812 0 L 45.492188 0 L 45.492188 195.023438 L 0.257812 195.023438 Z M 0.257812 0 " fill-opacity="1" fill-rule="nonzero"/><path fill="rgb(100%, 100%, 100%)" d="M 0.257812 0 L 45.492188 0 L 45.492188 43.75 L 0.257812 43.75 Z M 0.257812 0 " fill-opacity="1" fill-rule="nonzero"/><path fill="rgb(96.469116%, 85.879517%, 84.309387%)" d="M 0.257812 0 L 45.492188 0 L 45.492188 43.75 L 0.257812 43.75 Z M 0.257812 0 " fill-opacity="1" fill-rule="nonzero"/></g><g clip-path="url(#clip-1)"><path fill="rgb(88.62915%, 38.038635%, 29.40979%)" d="M 19.15625 42.476562 C 22.289062 42.476562 21.609375 41.945312 23.707031 41.945312 C 25.800781 41.945312 25.828125 42.636719 28.660156 42.636719 C 31.492188 42.636719 44.535156 23.941406 34.929688 16.496094 C 30.941406 13.402344 26.101562 14.601562 23.285156 14.886719 C 20.730469 15.144531 12.703125 12.785156 10.175781 19.824219 C 7.4375 27.445312 16.019531 42.476562 19.15625 42.476562 Z M 19.15625 42.476562 " fill-opacity="1" fill-rule="nonzero"/></g><g clip-path="url(#clip-2)"><path fill="rgb(24.308777%, 62.748718%, 45.098877%)" d="M 6.714844 4.085938 C 20.5 1.164062 22.289062 12.792969 22.289062 12.792969 C 22.289062 12.792969 14.714844 14.324219 6.714844 4.085938 Z M 6.714844 4.085938 " fill-opacity="1" fill-rule="nonzero"/></g><path fill="rgb(24.308777%, 62.748718%, 45.098877%)" d="M 26.339844 11.699219 C 27.8125 10.714844 29.296875 9.722656 30.550781 8.476562 C 31.207031 7.828125 31.804688 7.101562 32.589844 6.613281 C 32.964844 6.382812 33.386719 6.199219 33.652344 5.851562 C 32.507812 5.484375 31.265625 5.53125 30.09375 5.792969 C 28.921875 6.054688 27.8125 6.523438 26.710938 7 C 25.703125 7.4375 24.671875 7.902344 23.898438 8.683594 C 23.339844 9.246094 22.945312 9.945312 22.5625 10.640625 C 22.144531 11.398438 21.023438 13.222656 22.652344 13.378906 C 23.902344 13.496094 25.367188 12.351562 26.339844 11.699219 Z M 26.339844 11.699219 " fill-opacity="1" fill-rule="nonzero"/><path fill="rgb(27.059937%, 69.799805%, 50.19989%)" d="M 24.015625 17.304688 C 24.886719 17.230469 25.78125 16.625 25.882812 15.761719 C 25.304688 15.753906 24.789062 16.097656 24.234375 16.257812 C 23.800781 16.378906 20.71875 16.167969 20.71875 16.167969 C 21.238281 17.773438 23.613281 17.335938 24.015625 17.304688 Z M 24.015625 17.304688 " fill-opacity="1" fill-rule="nonzero"/><path fill="rgb(27.059937%, 69.799805%, 50.19989%)" d="M 24.171875 6.105469 L 22.421875 5.585938 C 20.527344 14 21.609375 15.433594 22.675781 16.816406 C 22.902344 17.164062 23.375 17.246094 23.679688 16.636719 C 23.410156 15.332031 21.484375 14.386719 24.171875 6.105469 Z M 24.171875 6.105469 " fill-opacity="1" fill-rule="nonzero"/><path fill="rgb(36.859131%, 14.898682%, 9.01947%)" d="M 22.5625 3.378906 C 22.71875 3.039062 23.003906 2.738281 23.367188 2.660156 C 23.609375 2.609375 23.863281 2.660156 24.101562 2.71875 C 24.34375 2.777344 24.578125 2.851562 24.8125 2.933594 C 25.019531 3.003906 25.234375 3.089844 25.359375 3.269531 C 25.566406 3.554688 25.457031 3.957031 25.296875 4.269531 C 25.03125 4.769531 24.640625 5.214844 24.488281 5.757812 C 24.441406 5.925781 24.410156 6.113281 24.28125 6.230469 C 24.042969 6.441406 23.605469 6.332031 23.324219 6.3125 C 23.058594 6.292969 22.757812 6.285156 22.542969 6.101562 C 22.171875 5.789062 22.265625 5.152344 22.300781 4.726562 C 22.335938 4.277344 22.375 3.792969 22.5625 3.378906 Z M 22.5625 3.378906 " fill-opacity="1" fill-rule="nonzero"/><path fill="rgb(89.7995%, 46.669006%, 41.178894%)" d="M 12.570312 19.824219 C 11.828125 21.910156 12.035156 24.199219 12.28125 26.398438 C 12.4375 27.765625 12.816406 29.40625 14.132812 29.832031 C 15.089844 28.269531 14.800781 26.203125 15.675781 24.589844 C 16.546875 22.988281 18.414062 22.15625 20.226562 21.890625 C 22.039062 21.621094 23.890625 21.808594 25.714844 21.664062 C 27.542969 21.519531 29.460938 20.964844 30.636719 19.566406 C 31.078125 19.039062 31.402344 18.367188 31.324219 17.683594 C 31.242188 17.003906 30.648438 16.359375 29.957031 16.402344 C 29.601562 16.421875 29.277344 16.613281 28.96875 16.789062 C 27.277344 17.738281 25.429688 18.414062 23.523438 18.777344 C 22.5 18.976562 21.453125 19.082031 20.414062 19.007812 C 19.816406 18.964844 19.203125 18.851562 18.714844 18.515625 C 17.429688 17.625 18.082031 16.304688 19.390625 16.101562 C 16.523438 15.257812 13.523438 17.128906 12.570312 19.824219 Z M 12.570312 19.824219 " fill-opacity="1" fill-rule="nonzero"/><g clip-path="url(#clip-3)"><path fill="rgb(79.60968%, 34.509277%, 26.269531%)" d="M 38.175781 21.75 C 37.496094 22.625 37.554688 24.328125 37.394531 25.28125 C 36.851562 28.535156 36.269531 31.882812 34.511719 34.675781 C 32.75 37.46875 29.488281 39.597656 26.222656 39.027344 C 25.238281 38.855469 24.25 38.449219 23.273438 38.652344 C 22.351562 38.847656 21.589844 39.5625 20.652344 39.671875 C 19.628906 39.792969 18.679688 39.167969 17.839844 38.570312 C 15.890625 37.183594 13.910156 35.765625 12.417969 33.910156 C 14.617188 38.667969 17.578125 42.476562 19.15625 42.476562 C 22.289062 42.476562 21.609375 41.945312 23.707031 41.945312 C 25.800781 41.945312 25.828125 42.636719 28.660156 42.636719 C 30.953125 42.636719 39.949219 30.367188 38.175781 21.75 Z M 38.175781 21.75 " fill-opacity="1" fill-rule="nonzero"/></g><path fill="rgb(90.979004%, 57.649231%, 54.508972%)" d="M 14.15625 19.070312 C 13.105469 20.484375 12.8125 22.699219 12.996094 24.398438 C 13.027344 24.679688 13.226562 25.050781 13.484375 24.929688 C 13.597656 24.875 13.644531 24.742188 13.679688 24.621094 C 14.046875 23.351562 14.1875 21.992188 14.859375 20.851562 C 15.171875 20.328125 16.105469 19.269531 15.613281 18.617188 C 15.027344 17.839844 14.511719 18.585938 14.15625 19.070312 Z M 14.15625 19.070312 " fill-opacity="1" fill-rule="nonzero"/><path fill="rgb(90.979004%, 57.649231%, 54.508972%)" d="M 30.386719 17.472656 C 29.8125 17.195312 29.152344 17.574219 28.605469 17.910156 C 27.445312 18.621094 24.398438 19.117188 23.800781 20.257812 C 24.980469 20.476562 26.472656 19.78125 27.582031 19.355469 C 28.148438 19.140625 28.710938 18.925781 29.277344 18.710938 C 29.84375 18.492188 30.535156 18.0625 30.386719 17.472656 Z M 30.386719 17.472656 " fill-opacity="1" fill-rule="nonzero"/></svg>