<?xml version="1.0" encoding="UTF-8"?><svg xmlns="http://www.w3.org/2000/svg" xmlns:xlink="http://www.w3.org/1999/xlink" contentScriptType="text/ecmascript" width="45.75" zoomAndPan="magnify" contentStyleType="text/css" viewBox="0 0 45.75 44.249999" height="44.249999" preserveAspectRatio="xMidYMid meet" version="1.0"><defs><clipPath id="clip-0"><path d="M 0.257812 0 L 45.246094 0 L 45.246094 43.511719 L 0.257812 43.511719 Z M 0.257812 0 " clip-rule="nonzero"/></clipPath><clipPath id="clip-1"><path d="M 7.617188 1.863281 L 37.976562 1.863281 L 37.976562 43.027344 L 7.617188 43.027344 Z M 7.617188 1.863281 " clip-rule="nonzero"/></clipPath><clipPath id="clip-2"><path d="M 15 1.863281 L 37.976562 1.863281 L 37.976562 43.027344 L 15 43.027344 Z M 15 1.863281 " clip-rule="nonzero"/></clipPath><clipPath id="clip-3"><path d="M 17 0.761719 L 29 0.761719 L 29 7 L 17 7 Z M 17 0.761719 " clip-rule="nonzero"/></clipPath><clipPath id="clip-4"><path d="M 20 0.761719 L 29 0.761719 L 29 7 L 20 7 Z M 20 0.761719 " clip-rule="nonzero"/></clipPath></defs><g clip-path="url(#clip-0)"><path fill="rgb(100%, 100%, 100%)" d="M 0.257812 0 L 45.492188 0 L 45.492188 43.75 L 0.257812 43.75 Z M 0.257812 0 " fill-opacity="1" fill-rule="nonzero"/><path fill="rgb(92.158508%, 84.709167%, 70.979309%)" d="M 0.257812 0 L 45.492188 0 L 45.492188 43.75 L 0.257812 43.75 Z M 0.257812 0 " fill-opacity="1" fill-rule="nonzero"/></g><g clip-path="url(#clip-1)"><path fill="rgb(94.509888%, 44.309998%, 8.628845%)" d="M 37.976562 2.976562 L 37.976562 41.972656 C 37.976562 42.554688 37.503906 43.03125 36.921875 43.03125 L 8.667969 43.03125 C 8.089844 43.03125 7.617188 42.554688 7.617188 41.972656 L 7.617188 2.976562 C 7.617188 2.390625 8.089844 1.917969 8.667969 1.917969 L 36.921875 1.917969 C 37.503906 1.917969 37.976562 2.390625 37.976562 2.976562 " fill-opacity="1" fill-rule="nonzero"/></g><g clip-path="url(#clip-2)"><path fill="rgb(97.24884%, 65.879822%, 6.669617%)" d="M 37.976562 2.976562 L 37.976562 41.972656 C 37.976562 42.554688 37.503906 43.03125 36.921875 43.03125 L 16.125 43.03125 C 15.546875 43.03125 15.074219 42.554688 15.074219 41.972656 L 15.074219 2.976562 C 15.074219 2.390625 15.546875 1.917969 16.125 1.917969 L 36.921875 1.917969 C 37.503906 1.917969 37.976562 2.390625 37.976562 2.976562 " fill-opacity="1" fill-rule="nonzero"/></g><path fill="rgb(82.749939%, 82.348633%, 82.348633%)" d="M 34.871094 39.855469 L 10.722656 39.855469 L 10.722656 5.089844 L 34.871094 5.089844 L 34.871094 39.855469 " fill-opacity="1" fill-rule="nonzero"/><path fill="rgb(95.689392%, 95.689392%, 95.689392%)" d="M 34.871094 39.855469 L 15.695312 39.855469 L 15.695312 5.089844 L 34.871094 5.089844 L 34.871094 39.855469 " fill-opacity="1" fill-rule="nonzero"/><g clip-path="url(#clip-3)"><path fill="rgb(25.878906%, 71.369934%, 55.288696%)" d="M 28.507812 6.59375 L 17.5 6.59375 L 17.5 0.761719 L 28.507812 0.761719 L 28.507812 6.59375 " fill-opacity="1" fill-rule="nonzero"/></g><g clip-path="url(#clip-4)"><path fill="rgb(42.749023%, 79.998779%, 66.268921%)" d="M 28.507812 6.59375 L 20.609375 6.59375 L 20.609375 0.761719 L 28.507812 0.761719 L 28.507812 6.59375 " fill-opacity="1" fill-rule="nonzero"/></g><path fill="rgb(30.979919%, 29.798889%, 29.798889%)" d="M 26.523438 20.675781 L 12.171875 20.675781 L 12.171875 20.527344 L 26.523438 20.527344 L 26.523438 20.675781 " fill-opacity="1" fill-rule="nonzero"/><path fill="rgb(30.979919%, 29.798889%, 29.798889%)" d="M 26.523438 23.855469 L 12.171875 23.855469 L 12.171875 23.703125 L 26.523438 23.703125 L 26.523438 23.855469 " fill-opacity="1" fill-rule="nonzero"/><path fill="rgb(30.979919%, 29.798889%, 29.798889%)" d="M 26.523438 27.210938 L 12.171875 27.210938 L 12.171875 27.0625 L 26.523438 27.0625 L 26.523438 27.210938 " fill-opacity="1" fill-rule="nonzero"/><path fill="rgb(30.979919%, 29.798889%, 29.798889%)" d="M 12.171875 10.574219 L 19.496094 10.574219 L 19.496094 10.425781 L 12.171875 10.425781 Z M 12.171875 10.574219 " fill-opacity="1" fill-rule="nonzero"/><path fill="rgb(30.979919%, 29.798889%, 29.798889%)" d="M 26.523438 13.78125 L 12.171875 13.78125 L 12.171875 13.632812 L 26.523438 13.632812 L 26.523438 13.78125 " fill-opacity="1" fill-rule="nonzero"/><path fill="rgb(30.979919%, 29.798889%, 29.798889%)" d="M 26.523438 17.140625 L 12.171875 17.140625 L 12.171875 16.992188 L 26.523438 16.992188 L 26.523438 17.140625 " fill-opacity="1" fill-rule="nonzero"/><path fill="rgb(30.979919%, 29.798889%, 29.798889%)" d="M 26.523438 30.523438 L 12.171875 30.523438 L 12.171875 30.375 L 26.523438 30.375 L 26.523438 30.523438 " fill-opacity="1" fill-rule="nonzero"/><path fill="rgb(30.979919%, 29.798889%, 29.798889%)" d="M 26.523438 33.699219 L 12.171875 33.699219 L 12.171875 33.550781 L 26.523438 33.550781 L 26.523438 33.699219 " fill-opacity="1" fill-rule="nonzero"/><path fill="rgb(30.979919%, 29.798889%, 29.798889%)" d="M 26.523438 37.058594 L 12.171875 37.058594 L 12.171875 36.910156 L 26.523438 36.910156 L 26.523438 37.058594 " fill-opacity="1" fill-rule="nonzero"/><path fill="rgb(39.608765%, 12.159729%, 28.239441%)" d="M 33.101562 13.632812 C 33.101562 14.945312 32.046875 16.007812 30.742188 16.007812 C 29.441406 16.007812 28.386719 14.945312 28.386719 13.632812 C 28.386719 12.324219 29.441406 11.261719 30.742188 11.261719 C 32.046875 11.261719 33.101562 12.324219 33.101562 13.632812 " fill-opacity="1" fill-rule="nonzero"/><path fill="rgb(69.018555%, 23.529053%, 55.688477%)" d="M 32.78125 13.632812 C 32.78125 14.765625 31.867188 15.683594 30.742188 15.683594 C 29.617188 15.683594 28.707031 14.765625 28.707031 13.632812 C 28.707031 12.503906 29.617188 11.585938 30.742188 11.585938 C 31.867188 11.585938 32.78125 12.503906 32.78125 13.632812 " fill-opacity="1" fill-rule="nonzero"/><path fill="rgb(95.689392%, 95.689392%, 95.689392%)" d="M 29.675781 14.910156 L 29.550781 14.648438 C 29.222656 13.957031 28.558594 13.183594 28.550781 13.175781 L 28.855469 12.90625 C 28.882812 12.9375 29.421875 13.5625 29.789062 14.222656 C 30.265625 13.765625 31.519531 12.640625 32.582031 12.304688 L 32.703125 12.691406 C 31.480469 13.082031 29.894531 14.6875 29.878906 14.703125 L 29.675781 14.910156 " fill-opacity="1" fill-rule="nonzero"/><path fill="rgb(39.608765%, 12.159729%, 28.239441%)" d="M 33.101562 20.527344 C 33.101562 21.835938 32.046875 22.898438 30.742188 22.898438 C 29.441406 22.898438 28.386719 21.835938 28.386719 20.527344 C 28.386719 19.214844 29.441406 18.152344 30.742188 18.152344 C 32.046875 18.152344 33.101562 19.214844 33.101562 20.527344 " fill-opacity="1" fill-rule="nonzero"/><path fill="rgb(69.018555%, 23.529053%, 55.688477%)" d="M 32.78125 20.527344 C 32.78125 21.660156 31.867188 22.578125 30.742188 22.578125 C 29.617188 22.578125 28.707031 21.660156 28.707031 20.527344 C 28.707031 19.394531 29.617188 18.476562 30.742188 18.476562 C 31.867188 18.476562 32.78125 19.394531 32.78125 20.527344 " fill-opacity="1" fill-rule="nonzero"/><path fill="rgb(95.689392%, 95.689392%, 95.689392%)" d="M 29.675781 21.800781 L 29.550781 21.539062 C 29.222656 20.851562 28.558594 20.078125 28.550781 20.070312 L 28.855469 19.800781 C 28.882812 19.832031 29.421875 20.457031 29.789062 21.113281 C 30.265625 20.65625 31.519531 19.535156 32.582031 19.195312 L 32.703125 19.585938 C 31.480469 19.972656 29.894531 21.578125 29.878906 21.59375 L 29.675781 21.800781 " fill-opacity="1" fill-rule="nonzero"/><path fill="rgb(39.608765%, 12.159729%, 28.239441%)" d="M 33.101562 27.472656 C 33.101562 28.78125 32.046875 29.84375 30.742188 29.84375 C 29.441406 29.84375 28.386719 28.78125 28.386719 27.472656 C 28.386719 26.160156 29.441406 25.097656 30.742188 25.097656 C 32.046875 25.097656 33.101562 26.160156 33.101562 27.472656 " fill-opacity="1" fill-rule="nonzero"/><path fill="rgb(69.018555%, 23.529053%, 55.688477%)" d="M 32.78125 27.472656 C 32.78125 28.605469 31.867188 29.523438 30.742188 29.523438 C 29.617188 29.523438 28.707031 28.605469 28.707031 27.472656 C 28.707031 26.339844 29.617188 25.421875 30.742188 25.421875 C 31.867188 25.421875 32.78125 26.339844 32.78125 27.472656 " fill-opacity="1" fill-rule="nonzero"/><path fill="rgb(95.689392%, 95.689392%, 95.689392%)" d="M 29.675781 28.746094 L 29.550781 28.484375 C 29.222656 27.792969 28.558594 27.019531 28.550781 27.011719 L 28.855469 26.746094 C 28.882812 26.773438 29.421875 27.402344 29.789062 28.058594 C 30.265625 27.601562 31.519531 26.480469 32.582031 26.140625 L 32.703125 26.53125 C 31.480469 26.917969 29.894531 28.523438 29.878906 28.539062 L 29.675781 28.746094 " fill-opacity="1" fill-rule="nonzero"/><path fill="rgb(39.608765%, 12.159729%, 28.239441%)" d="M 33.101562 34.914062 C 33.101562 36.226562 32.046875 37.289062 30.742188 37.289062 C 29.441406 37.289062 28.386719 36.226562 28.386719 34.914062 C 28.386719 33.605469 29.441406 32.542969 30.742188 32.542969 C 32.046875 32.542969 33.101562 33.605469 33.101562 34.914062 " fill-opacity="1" fill-rule="nonzero"/><path fill="rgb(69.018555%, 23.529053%, 55.688477%)" d="M 32.78125 34.914062 C 32.78125 36.046875 31.867188 36.964844 30.742188 36.964844 C 29.617188 36.964844 28.707031 36.046875 28.707031 34.914062 C 28.707031 33.78125 29.617188 32.863281 30.742188 32.863281 C 31.867188 32.863281 32.78125 33.78125 32.78125 34.914062 " fill-opacity="1" fill-rule="nonzero"/><path fill="rgb(95.689392%, 95.689392%, 95.689392%)" d="M 29.675781 36.1875 L 29.550781 35.925781 C 29.222656 35.238281 28.558594 34.464844 28.550781 34.457031 L 28.855469 34.1875 C 28.882812 34.21875 29.421875 34.84375 29.789062 35.503906 C 30.265625 35.046875 31.519531 33.921875 32.582031 33.585938 L 32.703125 33.972656 C 31.480469 34.359375 29.894531 35.964844 29.878906 35.984375 L 29.675781 36.1875 " fill-opacity="1" fill-rule="nonzero"/></svg>